<svg width="68" height="65" viewBox="0 0 68 65" fill="none" xmlns="http://www.w3.org/2000/svg">
<path d="M68 32.5C68 50.1731 52.7777 64.5 34 64.5C15.2223 64.5 0 50.1731 0 32.5C0 14.8269 15.2223 0.5 34 0.5C52.7777 0.5 68 14.8269 68 32.5Z" fill="#FF5A00"/>
<path d="M12 20H15C15.5304 20 16.0391 20.2107 16.4142 20.5858C16.7893 20.9609 17 21.4696 17 22V27C17 27.5304 16.7893 28.0391 16.4142 28.4142C16.0391 28.7893 15.5304 29 15 29H12C11.4696 29 10.9609 28.7893 10.5858 28.4142C10.2107 28.0391 10 27.5304 10 27V20C10 14.477 14.477 10 20 10C25.523 10 30 14.477 30 20V27C30 27.5304 29.7893 28.0391 29.4142 28.4142C29.0391 28.7893 28.5304 29 28 29H25C24.4696 29 23.9609 28.7893 23.5858 28.4142C23.2107 28.0391 23 27.5304 23 27V22C23 21.4696 23.2107 20.9609 23.5858 20.5858C23.9609 20.2107 24.4696 20 25 20H28C28 17.8783 27.1571 15.8434 25.6569 14.3431C24.1566 12.8429 22.1217 12 20 12C17.8783 12 15.8434 12.8429 14.3431 14.3431C12.8429 15.8434 12 17.8783 12 20Z" fill="white"/>
<path d="M37.2551 28.35C37.1023 28.35 36.9749 28.2989 36.8728 28.1968C36.7699 28.0947 36.7185 27.9672 36.7185 27.8144V26.7433H36.1422C35.5381 26.7433 35.0301 26.5373 34.618 26.1253C34.206 25.7132 34 25.2052 34 24.601V19.2454C34 18.7941 34.155 18.4135 34.4649 18.1036C34.7741 17.7937 35.1547 17.6387 35.6067 17.6387C36.0587 17.6387 36.4393 17.7937 36.7485 18.1036C37.0584 18.4135 37.2134 18.7941 37.2134 19.2454V22.9944H52.2091V19.2454C52.2091 18.7941 52.3641 18.4135 52.674 18.1036C52.9832 17.7937 53.3638 17.6387 53.8158 17.6387C54.2678 17.6387 54.6484 17.7937 54.9576 18.1036C55.2675 18.4135 55.4225 18.7941 55.4225 19.2454V24.601C55.4225 25.2052 55.2165 25.7132 54.8045 26.1253C54.3924 26.5373 53.8844 26.7433 53.2802 26.7433H52.704V27.8144C52.704 27.953 52.6561 28.0768 52.5604 28.1861C52.4648 28.2954 52.3477 28.35 52.2091 28.35C52.057 28.35 51.9296 28.2989 51.8267 28.1968C51.7246 28.094 51.6736 27.9665 51.6736 27.8144V26.7433H37.7907V27.8144C37.7907 27.9672 37.7393 28.0947 37.6365 28.1968C37.5344 28.2989 37.408 28.35 37.2551 28.35ZM38.2845 21.9232V19.2454C38.2845 18.5799 38.0849 17.9858 37.6857 17.4631C37.2873 16.9404 36.7728 16.6419 36.1422 16.5676V15.3733C36.1422 14.7692 36.3483 14.2611 36.7603 13.8491C37.1723 13.4371 37.6804 13.2307 38.2845 13.23H51.138C51.7421 13.23 52.2502 13.436 52.6622 13.848C53.0742 14.26 53.2802 14.7681 53.2802 15.3722V16.5665C52.6454 16.6379 52.1299 16.9336 51.7335 17.4534C51.3365 17.974 51.138 18.5713 51.138 19.2454V21.9232H38.2845Z" fill="white"/>
<path d="M15.572 35.062C14.99 35.749 14.87 36.754 14.628 38.766L14.538 39.523C14.287 41.611 14.162 42.655 14.758 43.327C15.355 44 16.406 44 18.508 44H19.25V45.75H15C14.679 45.75 14.378 45.836 14.12 45.987L13.84 45.15C13.7822 44.9652 13.7138 44.7839 13.635 44.607C13.5778 44.4789 13.5116 44.3549 13.437 44.236C13.152 43.767 12.781 43.36 12.179 43.096C11.613 42.846 10.905 42.75 10 42.75C9.80109 42.75 9.61032 42.829 9.46967 42.9697C9.32902 43.1103 9.25 43.3011 9.25 43.5C9.25 43.6989 9.32902 43.8897 9.46967 44.0303C9.61032 44.171 9.80109 44.25 10 44.25C10.827 44.25 11.29 44.342 11.574 44.468C11.823 44.578 11.984 44.733 12.155 45.015C12.185 45.065 12.198 45.086 12.211 45.111C12.224 45.135 12.242 45.169 12.274 45.238C12.324 45.348 12.349 45.418 12.424 45.642L13.288 48.237C13.3207 48.3307 13.3705 48.4175 13.435 48.493C13.6354 49.0105 13.9876 49.4552 14.4454 49.7688C14.9032 50.0824 15.4451 50.2501 16 50.25H19.25V51.416C18.6791 51.5764 18.1563 51.8741 17.7271 52.2833C17.2979 52.6924 16.9755 53.2005 16.788 53.763C16.7282 53.9509 16.7447 54.1548 16.8341 54.3306C16.9235 54.5063 17.0785 54.6398 17.2656 54.7021C17.4527 54.7645 17.6568 54.7506 17.8337 54.6635C18.0107 54.5765 18.1462 54.4232 18.211 54.237C18.3862 53.7121 18.7589 53.276 19.25 53.021V54C19.25 54.1989 19.329 54.3897 19.4697 54.5303C19.6103 54.671 19.8011 54.75 20 54.75C20.1989 54.75 20.3897 54.671 20.5303 54.5303C20.671 54.3897 20.75 54.1989 20.75 54V53.02C21.2413 53.2752 21.614 53.7117 21.789 54.237C21.8573 54.4186 21.9933 54.5666 22.1684 54.6501C22.3435 54.7335 22.5441 54.7459 22.7282 54.6845C22.9122 54.6232 23.0653 54.4929 23.1553 54.3211C23.2454 54.1493 23.2653 53.9492 23.211 53.763C23.0236 53.2006 22.7013 52.6926 22.2723 52.2835C21.8433 51.8744 21.3207 51.5765 20.75 51.416V50.25H24C24.5549 50.2501 25.0968 50.0824 25.5546 49.7688C26.0124 49.4552 26.3646 49.0105 26.565 48.493C26.6291 48.4174 26.6786 48.3306 26.711 48.237L27.577 45.642C27.651 45.418 27.675 45.347 27.727 45.238C27.7616 45.1613 27.801 45.0868 27.845 45.015C28.017 44.733 28.177 44.578 28.426 44.468C28.711 44.342 29.173 44.25 30 44.25C30.1989 44.25 30.3897 44.171 30.5303 44.0303C30.671 43.8897 30.75 43.6989 30.75 43.5C30.75 43.3011 30.671 43.1103 30.5303 42.9697C30.3897 42.829 30.1989 42.75 30 42.75C29.095 42.75 28.387 42.845 27.82 43.095C27.22 43.36 26.848 43.767 26.563 44.235C26.4884 44.3542 26.4222 44.4785 26.365 44.607C26.2859 44.7839 26.2171 44.9652 26.159 45.15L25.88 45.987C25.6129 45.8312 25.3092 45.7494 25 45.75H20.75V44H21.491C23.594 44 24.645 44 25.241 43.327C25.839 42.655 25.713 41.611 25.463 39.523L25.372 38.766C25.131 36.754 25.01 35.749 24.428 35.062C24.2434 34.8439 24.0285 34.6533 23.79 34.496C23.04 34 22.026 34 20 34C17.974 34 16.961 34 16.21 34.496C15.9715 34.6533 15.7566 34.8439 15.572 35.062Z" fill="white"/>
</svg>
