<svg width="69" height="65" viewBox="0 0 69 65" fill="none" xmlns="http://www.w3.org/2000/svg">
<path d="M68.7461 32.5C68.7461 50.1731 53.5238 64.5 34.7461 64.5C15.9684 64.5 0.746094 50.1731 0.746094 32.5C0.746094 14.8269 15.9684 0.5 34.7461 0.5C53.5238 0.5 68.7461 14.8269 68.7461 32.5Z" fill="#0BCA2E"/>
<g clip-path="url(#clip0_5153_7031)">
<path d="M54.9498 15.5H35.6641C34.8116 15.5 33.994 15.7634 33.3912 16.2322C32.7884 16.7011 32.4498 17.337 32.4498 18V30.5H16.3783C15.5259 30.5 14.7083 30.7634 14.1055 31.2322C13.5027 31.7011 13.1641 32.337 13.1641 33V50.5H58.1641V18C58.1641 17.337 57.8254 16.7011 57.2226 16.2322C56.6198 15.7634 55.8023 15.5 54.9498 15.5ZM24.4141 48V39.25H30.8426V48H24.4141ZM54.9498 48H34.0569V38C34.0569 37.6685 33.8876 37.3505 33.5862 37.1161C33.2848 36.8817 32.876 36.75 32.4498 36.75H22.8069C22.3807 36.75 21.9719 36.8817 21.6705 37.1161C21.3691 37.3505 21.1998 37.6685 21.1998 38V48H16.3783V33H35.6641V18H54.9498V48Z" fill="white"/>
<path d="M38.4766 22.75H41.2891V25.3125H38.4766V22.75ZM46.9141 22.75H49.7266V25.3125H46.9141V22.75ZM38.4766 30.4375H41.2891V33H38.4766V30.4375ZM46.9141 30.4375H49.7266V33H46.9141V30.4375ZM38.4766 38.125H41.2891V40.6875H38.4766V38.125ZM46.9141 38.125H49.7266V40.6875H46.9141V38.125Z" fill="white"/>
</g>
<defs>
<clipPath id="clip0_5153_7031">
<rect width="45" height="41" fill="white" transform="translate(13.1641 12.5)"/>
</clipPath>
</defs>
</svg>
