<svg width="28" height="28" viewBox="0 0 28 28" fill="none" xmlns="http://www.w3.org/2000/svg">
<path d="M6 2L2 6.8V23.6C2 24.2365 2.28095 24.847 2.78105 25.2971C3.28115 25.7471 3.95942 26 4.66667 26H23.3333C24.0406 26 24.7189 25.7471 25.219 25.2971C25.719 24.847 26 24.2365 26 23.6V6.8L22 2H6Z" stroke="white" stroke-width="3" stroke-linecap="round" stroke-linejoin="round"/>
<path d="M2 6.80005H26" stroke="white" stroke-width="3" stroke-linecap="round" stroke-linejoin="round"/>
<path d="M19.3333 11.5999C19.3333 12.8729 18.7714 14.0938 17.7712 14.994C16.771 15.8941 15.4144 16.3999 14 16.3999C12.5855 16.3999 11.2289 15.8941 10.2287 14.994C9.22853 14.0938 8.66663 12.8729 8.66663 11.5999" stroke="white" stroke-width="3" stroke-linecap="round" stroke-linejoin="round"/>
</svg>
