<svg width="69" height="64" viewBox="0 0 69 64" fill="none" xmlns="http://www.w3.org/2000/svg">
<path d="M68 32C68 49.6731 52.7777 64 34 64C15.2223 64 0 49.6731 0 32C0 14.3269 15.2223 0 34 0C52.7777 0 68 14.3269 68 32Z" fill="#001E83"/>
<path d="M46.3461 26.375C44.9961 24.125 42.5211 23 39.8211 23H26.3211C23.6211 23 21.1461 24.125 19.7961 26.375C14.6211 34.25 13.4961 46.175 17.0961 48.65C20.6961 51.125 28.7961 40.325 33.0711 40.325C37.3461 40.325 45.2211 51.125 49.0461 48.65C52.6461 46.175 51.5211 34.25 46.3461 26.375ZM28.5711 34.25H26.3211V36.5H24.0711V34.25H21.8211V32H24.0711V29.75H26.3211V32H28.5711V34.25ZM40.7211 35.375C40.7211 36.5 39.8211 37.4 38.6961 37.4C37.5711 37.4 36.6711 36.5 36.6711 35.375C36.6711 34.25 37.5711 33.35 38.6961 33.35C39.8211 33.35 40.7211 34.25 40.7211 35.375ZM44.9961 30.875C44.9961 32 44.0961 32.9 42.9711 32.9C41.8461 32.9 40.9461 32 40.9461 30.875C40.9461 29.75 41.8461 28.85 42.9711 28.85C44.0961 28.85 44.9961 29.75 44.9961 30.875Z" fill="white"/>
</svg>
