<svg width="69" height="64" viewBox="0 0 69 64" fill="none" xmlns="http://www.w3.org/2000/svg">
<path d="M68.7461 32C68.7461 49.6731 53.5238 64 34.7461 64C15.9684 64 0.746094 49.6731 0.746094 32C0.746094 14.3269 15.9684 0 34.7461 0C53.5238 0 68.7461 14.3269 68.7461 32Z" fill="#7FAD01"/>
<path d="M32.2755 23.4688C32.2755 21.5294 31.4946 19.6694 30.1046 18.298C28.7147 16.9267 26.8295 16.1562 24.8637 16.1562C22.898 16.1562 21.0128 16.9267 19.6228 18.298C18.2329 19.6694 17.452 21.5294 17.452 23.4688C17.452 25.4081 18.2329 27.2681 19.6228 28.6395C21.0128 30.0108 22.898 30.7812 24.8637 30.7812C26.8295 30.7812 28.7147 30.0108 30.1046 28.6395C31.4946 27.2681 32.2755 25.4081 32.2755 23.4688ZM35.7034 25.9062C34.584 30.7889 30.1523 34.4375 24.8637 34.4375C18.7259 34.4375 13.7461 29.5244 13.7461 23.4688C13.7461 17.4131 18.7259 12.5 24.8637 12.5C30.1523 12.5 34.584 16.1486 35.7034 21.0312H41.2468C41.9262 20.2848 42.9145 19.8125 44.0108 19.8125H52.0402C54.0862 19.8125 55.7461 21.4502 55.7461 23.4688C55.7461 25.4873 54.0862 27.125 52.0402 27.125H44.0108C42.9145 27.125 41.9262 26.6527 41.2468 25.9062H35.7034ZM24.8637 18.5938C26.1742 18.5938 27.431 19.1074 28.3577 20.0216C29.2843 20.9358 29.8049 22.1758 29.8049 23.4688C29.8049 24.7617 29.2843 26.0017 28.3577 26.9159C27.431 27.8301 26.1742 28.3438 24.8637 28.3438C23.5533 28.3438 22.2965 27.8301 21.3698 26.9159C20.4432 26.0017 19.9226 24.7617 19.9226 23.4688C19.9226 22.1758 20.4432 20.9358 21.3698 20.0216C22.2965 19.1074 23.5533 18.5938 24.8637 18.5938ZM44.6284 30.7812C45.6553 30.7812 46.4814 31.5963 46.4814 32.6094V33.2188H53.8932C54.92 33.2188 55.7461 34.0338 55.7461 35.0469C55.7461 36.06 54.92 36.875 53.8932 36.875H35.3637C34.3369 36.875 33.5108 36.06 33.5108 35.0469C33.5108 34.0338 34.3369 33.2188 35.3637 33.2188H42.7755V32.6094C42.7755 31.5963 43.6016 30.7812 44.6284 30.7812ZM35.9814 47.8438V39.3125H53.2755V47.8438C53.2755 49.8623 51.6156 51.5 49.5696 51.5H39.6873C37.6413 51.5 35.9814 49.8623 35.9814 47.8438ZM17.452 36.875H27.3343C29.3803 36.875 31.0402 38.5127 31.0402 40.5312C31.0402 42.5498 29.3803 44.1875 27.3343 44.1875H26.099C26.099 45.5357 24.995 46.625 23.6284 46.625H18.6873C17.3207 46.625 16.2167 45.5357 16.2167 44.1875V38.0938C16.2167 37.4234 16.7726 36.875 17.452 36.875ZM27.3343 41.75C28.0137 41.75 28.5696 41.2016 28.5696 40.5312C28.5696 39.8609 28.0137 39.3125 27.3343 39.3125H26.099V41.75H27.3343ZM15.599 47.8438H29.1873C30.2141 47.8438 31.0402 48.6588 31.0402 49.6719C31.0402 50.685 30.2141 51.5 29.1873 51.5H15.599C14.5722 51.5 13.7461 50.685 13.7461 49.6719C13.7461 48.6588 14.5722 47.8438 15.599 47.8438Z" fill="white"/>
</svg>
