<svg width="54" height="40" viewBox="0 0 54 40" fill="none" xmlns="http://www.w3.org/2000/svg">
<rect width="54" height="40" rx="8" fill="#8C8BCC" fill-opacity="0.6"/>
<path d="M17.75 20H28.25M28.25 20C28.25 20.663 28.5134 21.2989 28.9822 21.7678C29.4511 22.2366 30.087 22.5 30.75 22.5C31.413 22.5 32.0489 22.2366 32.5178 21.7678C32.9866 21.2989 33.25 20.663 33.25 20M28.25 20C28.25 19.337 28.5134 18.7011 28.9822 18.2322C29.4511 17.7634 30.087 17.5 30.75 17.5C31.413 17.5 32.0489 17.7634 32.5178 18.2322C32.9866 18.7011 33.25 19.337 33.25 20M33.25 20H36.25M22.75 13.25H36.25M22.75 13.25C22.75 13.913 22.4866 14.5489 22.0178 15.0178C21.5489 15.4866 20.913 15.75 20.25 15.75C19.587 15.75 18.9511 15.4866 18.4822 15.0178C18.0134 14.5489 17.75 13.913 17.75 13.25C17.75 12.587 18.0134 11.9511 18.4822 11.4822C18.9511 11.0134 19.587 10.75 20.25 10.75C20.913 10.75 21.5489 11.0134 22.0178 11.4822C22.4866 11.9511 22.75 12.587 22.75 13.25ZM17.75 26.75H20.75M20.75 26.75C20.75 27.413 21.0134 28.0489 21.4822 28.5178C21.9511 28.9866 22.587 29.25 23.25 29.25C23.913 29.25 24.5489 28.9866 25.0178 28.5178C25.4866 28.0489 25.75 27.413 25.75 26.75M20.75 26.75C20.75 26.087 21.0134 25.4511 21.4822 24.9822C21.9511 24.5134 22.587 24.25 23.25 24.25C23.913 24.25 24.5489 24.5134 25.0178 24.9822C25.4866 25.4511 25.75 26.087 25.75 26.75M25.75 26.75H36.25" stroke="white" stroke-width="1.5" stroke-linecap="round" stroke-linejoin="round"/>
</svg>
